<?xml version="1.0" standalone="no"?>
<!DOCTYPE svg PUBLIC "-//W3C//DTD SVG 20010904//EN"
 "http://www.w3.org/TR/2001/REC-SVG-20010904/DTD/svg10.dtd">
<svg version="1.0" xmlns="http://www.w3.org/2000/svg"
 width="500.000000pt" height="500.000000pt" viewBox="0 0 500.000000 500.000000"
 preserveAspectRatio="xMidYMid meet">
<metadata>
Created by potrace 1.14, written by Peter Selinger 2001-2017
</metadata>
<g transform="translate(0.000000,500.000000) scale(0.100000,-0.100000)"
fill="#000000" stroke="none">
<path d="M2355 4993 c-219 -13 -452 -58 -664 -129 -111 -37 -115 -38 -265
-108 -94 -44 -296 -160 -361 -209 -123 -91 -236 -188 -330 -282 -103 -103
-247 -273 -273 -322 -7 -12 -18 -28 -25 -35 -56 -56 -248 -430 -287 -558 -7
-25 -17 -50 -22 -56 -7 -10 -67 -236 -74 -284 -2 -14 -11 -65 -19 -113 -43
-246 -37 -620 14 -882 14 -74 70 -287 81 -310 5 -11 16 -42 25 -69 28 -87 145
-332 198 -414 17 -26 51 -78 76 -117 242 -376 681 -735 1116 -913 174 -71 422
-141 560 -157 256 -31 424 -36 590 -21 50 5 104 10 120 11 128 11 342 60 500
115 481 168 897 476 1202 891 40 54 73 101 73 104 0 2 13 23 29 47 48 72 148
263 184 350 79 191 152 467 173 648 20 180 13 598 -12 725 -2 11 -8 45 -13 75
-31 183 -134 482 -227 655 -20 39 -44 84 -52 100 -80 156 -302 438 -464 587
-102 95 -252 215 -278 223 -11 4 -20 11 -20 16 0 5 -8 13 -17 16 -10 4 -31 16
-48 28 -52 38 -268 153 -370 197 -126 54 -397 135 -509 152 -21 4 -48 8 -60
11 -105 23 -394 38 -551 28z"/>
</g>
</svg>
